# This file uses centimeters as units for non-parametric coordinates.

mtllib rightupperfoot.mtl
g default
v 6.071088 14.354464 0.501959
v 5.602442 14.418338 -0.627670
v 5.602222 16.916792 -0.821163
v 6.138871 16.916792 0.561043
v 4.324582 14.444824 -1.095600
v 4.306576 16.916792 -1.393714
v 3.193136 14.418338 -0.627670
v 3.010931 16.916792 -0.821163
v 2.724490 14.354464 0.501959
v 2.474281 16.916792 0.561043
v 3.193136 14.290591 1.631588
v 3.010931 16.916792 1.943248
v 4.324582 14.264160 2.099519
v 4.306576 16.916792 2.515799
v 5.602442 14.290591 1.631588
v 5.602222 16.916792 1.943248
v 6.109137 13.206885 0.437095
v 5.615547 13.274173 -0.752664
v 4.423861 13.302035 -1.245483
v 3.232231 13.274173 -0.752664
v 2.738641 13.206885 0.437095
v 3.232231 13.139652 1.626798
v 4.423861 13.111790 2.119617
v 5.615547 13.139652 1.626798
v 5.619732 19.446687 -0.656633
v 6.224385 19.446687 0.803157
v 4.159887 19.446687 -1.261341
v 2.700042 19.446687 -0.656633
v 2.095389 19.446687 0.803157
v 2.700042 19.446687 2.263002
v 4.159887 19.446687 2.867710
v 5.619732 19.446687 2.263002
vt 0.750000 0.000000
vt 0.875000 0.000000
vt 0.875000 0.500000
vt 0.750000 0.500000
vt 0.875000 0.000000
vt 1.000000 0.000000
vt 1.000000 0.500000
vt 0.000000 0.000000
vt 0.125000 0.000000
vt 0.125000 0.500000
vt 0.000000 0.500000
vt 0.250000 0.000000
vt 0.250000 0.500000
vt 0.375000 0.000000
vt 0.375000 0.500000
vt 0.500000 0.000000
vt 0.500000 0.500000
vt 0.500000 0.000000
vt 0.625000 0.000000
vt 0.625000 0.500000
vt 0.625000 0.000000
vt 0.750000 0.000000
vt 0.875000 0.000000
vt 0.750000 0.000000
vt 0.750000 0.000000
vt 0.875000 0.000000
vt 1.000000 0.000000
vt 0.875000 0.000000
vt 0.875000 0.000000
vt 1.000000 0.000000
vt 0.000000 0.000000
vt 0.125000 0.000000
vt 0.125000 0.000000
vt 0.250000 0.000000
vt 0.250000 0.000000
vt 0.375000 0.000000
vt 0.500000 0.000000
vt 0.375000 0.000000
vt 0.500000 0.000000
vt 0.625000 0.000000
vt 0.500000 0.000000
vt 0.500000 0.000000
vt 0.625000 0.000000
vt 0.750000 0.000000
vt 0.625000 0.000000
vt 0.625000 0.000000
vt 0.750000 0.000000
vt 0.875000 1.000000
vt 0.750000 1.000000
vt 1.000000 1.000000
vt 0.875000 1.000000
vt 0.125000 1.000000
vt 0.000000 1.000000
vt 0.250000 1.000000
vt 0.375000 1.000000
vt 0.500000 1.000000
vt 0.625000 1.000000
vt 0.500000 1.000000
vt 0.750000 1.000000
vt 0.625000 1.000000
vn 0.999998 0.001200 0.001600
vn 0.843561 0.007900 -0.536975
vn 0.859581 -0.003200 -0.510989
vn 0.999941 -0.010400 -0.003100
vn 0.843561 0.007900 -0.536975
vn -0.035499 0.000200 -0.999370
vn 0.003700 -0.022901 -0.999731
vn 0.859581 -0.003200 -0.510989
vn -0.035499 0.000200 -0.999370
vn -0.857603 -0.010600 -0.514202
vn -0.858699 -0.031700 -0.511499
vn 0.003700 -0.022901 -0.999731
vn -0.857603 -0.010600 -0.514202
vn -0.999810 -0.019500 0.000000
vn -0.999044 -0.043602 -0.003200
vn -0.858699 -0.031700 -0.511499
vn -0.999810 -0.019500 0.000000
vn -0.856341 -0.037802 0.515025
vn -0.861799 -0.072100 0.502100
vn -0.999044 -0.043602 -0.003200
vn -0.856341 -0.037802 0.515025
vn -0.035800 -0.047900 0.998210
vn 0.004200 -0.101602 0.994816
vn -0.861799 -0.072100 0.502100
vn -0.035800 -0.047900 0.998210
vn 0.841157 -0.021299 0.540372
vn 0.863591 -0.043700 0.502295
vn 0.004200 -0.101602 0.994816
vn 0.841157 -0.021299 0.540372
vn 0.999998 0.001200 0.001600
vn 0.999941 -0.010400 -0.003100
vn 0.863591 -0.043700 0.502295
vn 0.843561 0.007900 -0.536975
vn 0.999998 0.001200 0.001600
vn 0.999364 0.030899 0.017799
vn 0.863460 0.164392 -0.476878
vn -0.035499 0.000200 -0.999370
vn 0.843561 0.007900 -0.536975
vn 0.863460 0.164392 -0.476878
vn -0.005100 0.298710 -0.954330
vn -0.857603 -0.010600 -0.514202
vn -0.035499 0.000200 -0.999370
vn -0.005100 0.298710 -0.954330
vn -0.866995 0.102799 -0.487597
vn -0.999810 -0.019500 0.000000
vn -0.857603 -0.010600 -0.514202
vn -0.866995 0.102799 -0.487597
vn -0.999248 -0.036902 0.011901
vn -0.856341 -0.037802 0.515025
vn -0.999810 -0.019500 0.000000
vn -0.999248 -0.036902 0.011901
vn -0.842786 -0.096698 0.529491
vn -0.035800 -0.047900 0.998210
vn -0.856341 -0.037802 0.515025
vn -0.842786 -0.096698 0.529491
vn 0.000300 -0.101603 0.994825
vn 0.841157 -0.021299 0.540372
vn -0.035800 -0.047900 0.998210
vn 0.000300 -0.101603 0.994825
vn 0.840714 -0.042501 0.539809
vn 0.999998 0.001200 0.001600
vn 0.841157 -0.021299 0.540372
vn 0.840714 -0.042501 0.539809
vn 0.999364 0.030899 0.017799
vn 0.859581 -0.003200 -0.510989
vn 0.856852 0.021101 -0.515131
vn 0.999883 -0.012600 0.008700
vn 0.999941 -0.010400 -0.003100
vn 0.003700 -0.022901 -0.999731
vn -0.008400 0.036001 -0.999316
vn 0.856852 0.021101 -0.515131
vn 0.859581 -0.003200 -0.510989
vn -0.858699 -0.031700 -0.511499
vn -0.859216 -0.014400 -0.511410
vn -0.008400 0.036001 -0.999316
vn 0.003700 -0.022901 -0.999731
vn -0.999044 -0.043602 -0.003200
vn -0.998525 -0.053601 0.008600
vn -0.859216 -0.014400 -0.511410
vn -0.858699 -0.031700 -0.511499
vn -0.861799 -0.072100 0.502100
vn -0.844058 -0.083096 0.529774
vn -0.998525 -0.053601 0.008600
vn -0.999044 -0.043602 -0.003200
vn 0.004200 -0.101602 0.994816
vn -0.007700 -0.095995 0.995352
vn -0.844058 -0.083096 0.529774
vn -0.861799 -0.072100 0.502100
vn 0.863591 -0.043700 0.502295
vn 0.843499 -0.048900 0.534900
vn -0.007700 -0.095995 0.995352
vn 0.004200 -0.101602 0.994816
vn 0.999941 -0.010400 -0.003100
vn 0.999883 -0.012600 0.008700
vn 0.843499 -0.048900 0.534900
vn 0.863591 -0.043700 0.502295
s off
g polySurface2 _Cylinder002
usemtl initialShadingGroup
f 1/1/1 2/2/2 3/3/3 4/4/4
f 2/5/5 5/6/6 6/7/7 3/3/8
f 5/8/9 7/9/10 8/10/11 6/11/12
f 7/9/13 9/12/14 10/13/15 8/10/16
f 9/12/17 11/14/18 12/15/19 10/13/20
f 11/14/21 13/16/22 14/17/23 12/15/24
f 13/18/25 15/19/26 16/20/27 14/17/28
f 15/21/29 1/22/30 4/4/31 16/20/32
f 2/23/33 1/24/34 17/25/35 18/26/36
f 5/27/37 2/28/38 18/29/39 19/30/40
f 7/9/41 5/8/42 19/31/43 20/32/44
f 9/12/45 7/9/46 20/33/47 21/34/48
f 11/14/49 9/12/50 21/35/51 22/36/52
f 13/37/53 11/14/54 22/38/55 23/39/56
f 15/40/57 13/41/58 23/42/59 24/43/60
f 1/44/61 15/45/62 24/46/63 17/47/64
f 3/3/65 25/48/66 26/49/67 4/4/68
f 6/7/69 27/50/70 25/51/71 3/3/72
f 8/10/73 28/52/74 27/53/75 6/11/76
f 10/13/77 29/54/78 28/52/79 8/10/80
f 12/15/81 30/55/82 29/54/83 10/13/84
f 14/17/85 31/56/86 30/55/87 12/15/88
f 16/20/89 32/57/90 31/58/91 14/17/92
f 4/4/93 26/59/94 32/60/95 16/20/96
