# This file uses centimeters as units for non-parametric coordinates.

mtllib rightupper.mtl
g default
v 12.617900 79.150299 -4.355300
v 12.929900 80.789497 -0.834600
v 11.592200 72.550201 2.561400
v 11.787500 70.947800 -1.532100
v 11.604500 75.597603 -5.863300
v 11.483900 72.044800 -4.355300
v 12.269500 75.930496 5.081300
v 12.666500 79.538902 2.891200
v 24.757999 71.544701 -3.584900
v 18.684200 75.590401 -3.813400
v 19.192699 76.743698 -0.686100
v 25.302299 72.539597 -0.820800
v 23.443501 69.142998 -4.734000
v 17.456200 72.806396 -5.111100
v 22.128901 66.741600 -3.594900
v 16.273800 70.399300 -3.819100
v 21.584101 65.747101 -0.834400
v 15.765000 69.246300 -0.693800
v 22.128201 66.741997 1.930500
v 16.273500 70.399498 2.433900
v 23.442699 69.143501 3.079500
v 17.455700 72.806702 3.731600
v 24.757500 71.544998 1.939700
v 18.683901 75.590599 2.439100
v 26.665001 70.670197 -3.827400
v 27.285700 71.803802 -0.686200
v 25.166401 67.933296 -5.129300
v 23.667900 65.196503 -3.829300
v 23.047100 64.062897 -0.688900
v 23.667801 65.196503 2.452400
v 25.166401 67.933296 3.754400
v 26.665001 70.670197 2.454200
v 14.938000 78.344002 -4.021600
v 15.377100 79.719902 -0.902400
v 14.120200 75.043198 -5.479500
v 13.350300 72.169701 -4.024500
v 12.908100 70.841698 -0.508900
v 13.350100 72.169800 3.008000
v 14.120000 75.043297 4.465800
v 14.937800 78.344101 2.812800
vt 0.875000 0.577600
vt 0.875000 0.788800
vt 0.750000 0.788200
vt 0.750000 0.576400
vt 1.000000 0.580700
vt 1.000000 0.790300
vt 0.125000 0.583900
vt 0.125000 0.792000
vt 0.000000 0.790300
vt 0.000000 0.580700
vt 0.250000 0.585400
vt 0.250000 0.792700
vt 0.375000 0.584000
vt 0.375000 0.792000
vt 0.500000 0.580700
vt 0.500000 0.790300
vt 0.625000 0.577600
vt 0.625000 0.788800
vt 0.875000 0.499000
vt 0.750000 0.498600
vt 1.000000 0.500000
vt 0.125000 0.501200
vt 0.000000 0.500000
vt 0.250000 0.501700
vt 0.375000 0.501200
vt 0.500000 0.500000
vt 0.625000 0.499000
vt 0.875000 0.894400
vt 0.750000 0.894100
vt 1.000000 0.895200
vt 0.125000 0.896000
vt 0.000000 0.895200
vt 0.250000 0.896400
vt 0.375000 0.896000
vt 0.500000 0.895200
vt 0.625000 0.894400
vt 0.875000 1.000000
vt 0.750000 1.000000
vt 1.000000 1.000000
vt 0.125000 1.000000
vt 0.000000 1.000000
vt 0.250000 1.000000
vt 0.375000 1.000000
vt 0.500000 1.000000
vt 0.625000 1.000000
vn 0.319102 0.633804 -0.704604
vn 0.434708 0.573911 -0.694013
vn 0.592290 0.805686 0.007900
vn 0.460699 0.887498 -0.010200
vn -0.053900 0.041000 -0.997704
vn 0.050001 -0.055201 -0.997223
vn 0.434708 0.573911 -0.694013
vn 0.319102 0.633804 -0.704604
vn -0.466380 -0.535777 -0.703870
vn -0.356101 -0.638801 -0.682001
vn 0.050001 -0.055201 -0.997223
vn -0.053900 0.041000 -0.997704
vn -0.648571 -0.761066 -0.011599
vn -0.502101 -0.864801 -0.003800
vn -0.356101 -0.638801 -0.682001
vn -0.466380 -0.535777 -0.703870
vn -0.501202 -0.526402 0.686803
vn -0.314388 -0.665176 0.677275
vn -0.502101 -0.864801 -0.003800
vn -0.648571 -0.761066 -0.011599
vn -0.096497 0.060898 0.993469
vn 0.107702 -0.085301 0.990517
vn -0.314388 -0.665176 0.677275
vn -0.501202 -0.526402 0.686803
vn 0.295891 0.656280 0.694079
vn 0.456081 0.560477 0.691271
vn 0.107702 -0.085301 0.990517
vn -0.096497 0.060898 0.993469
vn 0.460699 0.887498 -0.010200
vn 0.592290 0.805686 0.007900
vn 0.456081 0.560477 0.691271
vn 0.295891 0.656280 0.694079
vn 0.425203 0.566604 -0.705806
vn 0.319102 0.633804 -0.704604
vn 0.460699 0.887498 -0.010200
vn 0.547990 0.836484 0.001100
vn 0.057599 -0.041200 -0.997489
vn -0.053900 0.041000 -0.997704
vn 0.319102 0.633804 -0.704604
vn 0.425203 0.566604 -0.705806
vn -0.338101 -0.626802 -0.702002
vn -0.466380 -0.535777 -0.703870
vn -0.053900 0.041000 -0.997704
vn 0.057599 -0.041200 -0.997489
vn -0.529432 -0.848352 -0.001000
vn -0.648571 -0.761066 -0.011599
vn -0.466380 -0.535777 -0.703870
vn -0.338101 -0.626802 -0.702002
vn -0.409284 -0.585377 0.699872
vn -0.501202 -0.526402 0.686803
vn -0.648571 -0.761066 -0.011599
vn -0.529432 -0.848352 -0.001000
vn -0.044400 0.005700 0.998998
vn -0.096497 0.060898 0.993469
vn -0.501202 -0.526402 0.686803
vn -0.409284 -0.585377 0.699872
vn 0.333004 0.616107 0.713808
vn 0.295891 0.656280 0.694079
vn -0.096497 0.060898 0.993469
vn -0.044400 0.005700 0.998998
vn 0.547990 0.836484 0.001100
vn 0.460699 0.887498 -0.010200
vn 0.295891 0.656280 0.694079
vn 0.333004 0.616107 0.713808
vn 0.434708 0.573911 -0.694013
vn 0.393687 0.617479 -0.680977
vn 0.505808 0.861813 -0.037901
vn 0.592290 0.805686 0.007900
vn 0.050001 -0.055201 -0.997223
vn 0.134898 -0.012100 -0.990786
vn 0.393687 0.617479 -0.680977
vn 0.434708 0.573911 -0.694013
vn -0.356101 -0.638801 -0.682001
vn -0.079496 -0.705968 -0.703768
vn 0.134898 -0.012100 -0.990786
vn 0.050001 -0.055201 -0.997223
vn -0.502101 -0.864801 -0.003800
vn -0.376288 -0.921369 0.097397
vn -0.079496 -0.705968 -0.703768
vn -0.356101 -0.638801 -0.682001
vn -0.314388 -0.665176 0.677275
vn -0.279393 -0.636285 0.719083
vn -0.376288 -0.921369 0.097397
vn -0.502101 -0.864801 -0.003800
vn 0.107702 -0.085301 0.990517
vn 0.246304 -0.055301 0.967614
vn -0.279393 -0.636285 0.719083
vn -0.314388 -0.665176 0.677275
vn 0.456081 0.560477 0.691271
vn 0.427891 0.622187 0.655586
vn 0.246304 -0.055301 0.967614
vn 0.107702 -0.085301 0.990517
vn 0.592290 0.805686 0.007900
vn 0.505808 0.861813 -0.037901
vn 0.427891 0.622187 0.655586
vn 0.456081 0.560477 0.691271
vn 0.393687 0.617479 -0.680977
vn 0.258306 0.649416 -0.715218
vn 0.318792 0.946375 -0.052399
vn 0.505808 0.861813 -0.037901
vn 0.134898 -0.012100 -0.990786
vn 0.220606 0.032401 -0.974825
vn 0.258306 0.649416 -0.715218
vn 0.393687 0.617479 -0.680977
vn -0.079496 -0.705968 -0.703768
vn 0.430909 -0.527011 -0.732515
vn 0.220606 0.032401 -0.974825
vn 0.134898 -0.012100 -0.990786
vn -0.279393 -0.636285 0.719083
vn 0.432896 -0.670793 0.602194
vn 0.626186 -0.761183 -0.168796
vn -0.376288 -0.921369 0.097397
vn 0.246304 -0.055301 0.967614
vn 0.516120 0.045002 0.855333
vn 0.432896 -0.670793 0.602194
vn -0.279393 -0.636285 0.719083
vn 0.427891 0.622187 0.655586
vn 0.353014 0.747329 0.562922
vn 0.516120 0.045002 0.855333
vn 0.246304 -0.055301 0.967614
vn 0.505808 0.861813 -0.037901
vn 0.318792 0.946375 -0.052399
vn 0.353014 0.747329 0.562922
vn 0.427891 0.622187 0.655586
s off
g polySurface6 _Mesh1
usemtl lambert4SG
f 9/1/1 10/2/2 11/3/3 12/4/4
f 13/5/5 14/6/6 10/2/7 9/1/8
f 15/7/9 16/8/10 14/9/11 13/10/12
f 17/11/13 18/12/14 16/8/15 15/7/16
f 19/13/17 20/14/18 18/12/19 17/11/20
f 21/15/21 22/16/22 20/14/23 19/13/24
f 23/17/25 24/18/26 22/16/27 21/15/28
f 12/4/29 11/3/30 24/18/31 23/17/32
f 25/19/33 9/1/34 12/4/35 26/20/36
f 27/21/37 13/5/38 9/1/39 25/19/40
f 28/22/41 15/7/42 13/10/43 27/23/44
f 29/24/45 17/11/46 15/7/47 28/22/48
f 30/25/49 19/13/50 17/11/51 29/24/52
f 31/26/53 21/15/54 19/13/55 30/25/56
f 32/27/57 23/17/58 21/15/59 31/26/60
f 26/20/61 12/4/62 23/17/63 32/27/64
f 10/2/65 33/28/66 34/29/67 11/3/68
f 14/6/69 35/30/70 33/28/71 10/2/72
f 16/8/73 36/31/74 35/32/75 14/9/76
f 18/12/77 37/33/78 36/31/79 16/8/80
f 20/14/81 38/34/82 37/33/83 18/12/84
f 22/16/85 39/35/86 38/34/87 20/14/88
f 24/18/89 40/36/90 39/35/91 22/16/92
f 11/3/93 34/29/94 40/36/95 24/18/96
f 33/28/97 1/37/98 2/38/99 34/29/100
f 35/30/101 5/39/102 1/37/103 33/28/104
f 36/31/105 6/40/106 5/41/107 35/32/108
f 38/34/109 3/43/110 4/42/111 37/33/112
f 39/35/113 7/44/114 3/43/115 38/34/116
f 40/36/117 8/45/118 7/44/119 39/35/120
f 34/29/121 2/38/122 8/45/123 40/36/124
